<svg
  viewBox="0 0 100 100"
  width="100"
  height="100"
  fill="none"
  xmlns="http://www.w3.org/2000/svg"
  >
  <g transform="translate(-6, -16)">
  <path d="M80.8098 20C86.5328 20.0002 91.1743 24.6411 91.1743 30.3645V83.8251C91.1743 86.5373 90.1318 89.0002 88.434 90.8431V94.2061C89.1385 95.4102 89.5286 96.7271 89.6335 97.9856L89.6491 98.2066L89.657 98.3809C89.722 100.131 89.2738 102.13 87.9908 103.893L87.8595 104.068C86.3946 105.978 84.2514 107.131 81.9435 107.397C81.9364 107.398 81.9291 107.399 81.922 107.4C81.8895 107.404 81.8594 107.406 81.8327 107.409C81.825 107.41 81.8172 107.411 81.8095 107.412L81.8092 107.412C81.7904 107.414 81.7736 107.416 81.759 107.417C81.7415 107.419 81.7254 107.42 81.7123 107.421C81.7094 107.421 81.7063 107.421 81.7033 107.422C81.7049 107.422 81.7068 107.422 81.7086 107.421C81.7038 107.422 81.6994 107.422 81.6955 107.422C81.6915 107.423 81.6881 107.423 81.6854 107.424C81.6822 107.424 81.6794 107.424 81.6772 107.424C81.6756 107.424 81.6734 107.424 81.672 107.424L81.6723 107.425C81.661 107.426 81.6498 107.427 81.6387 107.428C81.6245 107.429 81.6097 107.43 81.5943 107.432C81.5865 107.432 81.5786 107.433 81.5708 107.433C81.3837 107.448 81.2208 107.455 81.0958 107.458C81.0204 107.46 80.955 107.461 80.9029 107.462C80.8572 107.462 80.8144 107.462 80.8098 107.462V107.462H53.3307C50.9792 110.854 46.2224 112.158 42.4326 110.084C38.406 112.287 33.288 110.678 31.1229 106.802C24.6883 104.867 20 98.8971 20 91.8327V35.6291C20 26.9981 26.9981 20 35.6291 20H80.8098ZM87.0898 101.83C87.0888 101.832 87.0871 101.835 87.0851 101.839L87.0738 101.863L87.0903 101.829L87.0898 101.83ZM86.4216 94.5011C86.4184 94.4968 86.4155 94.4929 86.4132 94.4898C86.4125 94.4888 86.4115 94.488 86.4108 94.4872L86.4216 94.5011Z" fill="white"/>
  <path d="M31.6948 87.727H80.9087V95.5866C80.9087 96.419 80.2493 97.0946 79.4367 97.0946H31.6948C29.5515 97.0946 27.8086 95.3122 27.8086 93.1135V91.7051C27.8086 89.5095 29.5486 87.724 31.6948 87.724V87.727Z" fill="#FFF8E6"/>
  <path d="M31.6947 87.7271V87.724C29.5486 87.7241 27.8087 89.5094 27.8086 91.705V93.1137L27.81 93.2163C27.8624 95.3333 29.5307 97.0396 31.5946 97.0932L31.6947 97.0946H79.4369L79.5126 97.0927C80.2648 97.0535 80.8686 96.4349 80.9068 95.6643L80.9088 95.5867V87.7271H31.6947ZM82.7545 95.5867C82.7545 97.3962 81.3104 98.9403 79.4369 98.9404H31.6947C28.4913 98.9403 25.963 96.2903 25.9629 93.1137V91.705C25.963 88.5332 28.4866 85.8783 31.6947 85.8783C31.7291 85.8783 31.7634 85.8795 31.7973 85.8813H80.9088C81.9281 85.8813 82.7545 86.7077 82.7545 87.7271V95.5867Z" fill="#2F2F2F"/>
  <path d="M35.5122 97.4325C32.5391 97.4325 30.1283 95.0217 30.1283 92.0487C30.1283 89.0756 32.5391 86.6648 35.5122 86.6648H80.8091C82.3766 86.6648 83.6487 85.3927 83.6487 83.8253V30.3645C83.6487 28.797 82.3766 27.5249 80.8091 27.5249H35.6286C31.1534 27.5249 27.5244 31.1539 27.5244 35.6291V91.8329C27.5244 96.3081 31.1534 99.937 35.6286 99.937H80.8091C80.883 99.937 80.954 99.937 81.025 99.9285C82.5981 99.8093 82.4618 97.4325 80.883 97.4325H35.5122Z" fill="#4597F6"/>
  <path d="M25.6787 91.8328V35.6291C25.6787 30.1345 30.1341 25.6792 35.6286 25.6792V27.5249C31.1534 27.5249 27.5244 31.1539 27.5244 35.6291V91.8328C27.5244 96.2381 31.0409 99.8235 35.4195 99.9345L35.6286 99.937H80.8093C80.8831 99.937 80.9541 99.9372 81.025 99.9286C82.5735 99.8112 82.4656 97.5063 80.956 97.4343L80.883 97.4326V95.5869C82.853 95.5869 83.9003 97.16 83.9786 98.5305C84.0177 99.2152 83.8412 99.9752 83.353 100.612C82.8528 101.264 82.1071 101.675 81.2446 101.761L81.2449 101.761C81.2296 101.763 81.2142 101.764 81.1992 101.765C81.1876 101.766 81.1761 101.768 81.1645 101.769L81.1642 101.769C80.9984 101.783 80.8566 101.783 80.8093 101.783H35.6286C30.1341 101.783 25.6787 97.3273 25.6787 91.8328ZM80.883 95.5869V97.4326H35.5121V95.5869H80.883ZM30.1283 92.0488C30.1283 89.0758 32.5391 86.6647 35.5121 86.6647H80.8093L80.9551 86.6611C82.4065 86.5875 83.5714 85.4226 83.645 83.9713L83.6489 83.8251V30.3645C83.6489 28.846 82.4548 27.6046 80.9551 27.5285L80.8093 27.5249V25.6792C83.396 25.6792 85.4946 27.7777 85.4946 30.3645V83.8251C85.4946 86.4119 83.396 88.5104 80.8093 88.5104H35.5121C33.5585 88.5105 31.974 90.0952 31.974 92.0488C31.9741 94.0024 33.5585 95.5869 35.5121 95.5869V97.4326L35.3732 97.4307C32.5106 97.3582 30.2026 95.0504 30.13 92.1877L30.1283 92.0488ZM80.8093 25.6792V27.5249H35.6286V25.6792H80.8093Z" fill="#2F2F2F"/>
  <path d="M36.9668 27.5249L36.9668 87.724L35.1211 87.724L35.1211 27.5249L36.9668 27.5249Z" fill="#2F2F2F"/>
  <path d="M77.5015 91.0605C78.0111 91.0605 78.4243 91.4737 78.4243 91.9834C78.4243 92.4931 78.0111 92.9062 77.5015 92.9062L53.0811 92.9062C52.5714 92.9062 52.1582 92.4931 52.1582 91.9834C52.1582 91.4737 52.5714 91.0605 53.0811 91.0605L77.5015 91.0605Z" fill="#E6D3A2"/>
  <path d="M47.2588 102.691C47.2588 103.471 46.2979 103.841 45.775 103.262L43.0634 100.262C42.7252 99.8883 42.1378 99.8883 41.7996 100.262L39.088 103.262C38.5651 103.841 37.6042 103.471 37.6042 102.691L37.6042 93.8291C37.6042 93.3586 37.9856 92.9772 38.4561 92.9772L46.4069 92.9772C46.8774 92.9772 47.2588 93.3586 47.2588 93.8291L47.2588 102.691Z" fill="#FD9B9E"/>
  <path d="M47.2588 93.8291C47.2588 93.3586 46.8774 92.9772 46.4069 92.9772L38.4561 92.9772L38.4123 92.9783C37.9766 93.0004 37.6274 93.3497 37.6053 93.7853L37.6042 93.8291L37.6042 102.691C37.6043 103.471 38.5651 103.841 39.088 103.262L41.7995 100.263L41.8319 100.228C42.1742 99.8886 42.7358 99.9001 43.0635 100.263L45.7749 103.262C46.2978 103.841 47.2587 103.471 47.2588 102.691L47.2588 93.8291ZM35.7585 93.8291C35.7585 92.3393 36.9662 91.1315 38.4561 91.1315L46.4069 91.1315C47.8967 91.1315 49.1045 92.3393 49.1045 93.8291L49.1045 102.691C49.1044 105.122 46.156 106.295 44.4844 104.583L44.4056 104.5L42.4315 102.316L40.4574 104.5L40.3786 104.583C38.7069 106.295 35.7586 105.122 35.7585 102.691L35.7585 93.8291Z" fill="#2F2F2F"/>
  <path d="M49.4608 91.1315C49.9705 91.1315 50.3837 91.5447 50.3837 92.0544C50.3837 92.564 49.9705 92.9772 49.4608 92.9772L35.5469 92.9772C35.0372 92.9772 34.624 92.564 34.624 92.0544C34.624 91.5447 35.0372 91.1315 35.5469 91.1315L49.4608 91.1315Z" fill="#2F2F2F"/>
  <path d="M45.1299 38.3153C45.1299 36.4334 46.6555 34.9078 48.5374 34.9078H71.538C73.4199 34.9078 74.9455 36.4334 74.9455 38.3153V48.8218C74.9455 50.7037 73.4199 52.2292 71.538 52.2292H48.5374C46.6555 52.2292 45.1299 50.7037 45.1299 48.8218V38.3153Z" fill="#FD9B9E"/>
  <path d="M71.538 50.3835V52.2292H48.5374V50.3835H71.538ZM73.0998 48.8218V38.3153C73.0998 37.4528 72.4005 36.7535 71.538 36.7535H48.5374C47.6748 36.7535 46.9756 37.4528 46.9756 38.3153V48.8218C46.9756 49.6843 47.6748 50.3835 48.5374 50.3835V52.2292L48.4495 52.2281C46.6374 52.1823 45.1769 50.7217 45.131 48.9097L45.1299 48.8218V38.3153C45.1299 36.4334 46.6555 34.9078 48.5374 34.9078H71.538C73.4199 34.9078 74.9455 36.4334 74.9455 38.3153V48.8218L74.9444 48.9097C74.8985 50.7217 73.438 52.1823 71.6259 52.2281L71.538 52.2292V50.3835C72.4005 50.3835 73.0998 49.6843 73.0998 48.8218Z" fill="#2F2F2F"/>
  <path d="M74.0941 56.8497C74.6037 56.8497 75.0169 57.2629 75.0169 57.7726C75.0169 58.2822 74.6037 58.6954 74.0941 58.6954H45.6983C45.1886 58.6954 44.7754 58.2822 44.7754 57.7726C44.7754 57.2629 45.1886 56.8497 45.6983 56.8497H74.0941Z" fill="#2F2F2F"/>
  <path d="M62.0941 63.393C62.6037 63.393 63.0169 63.8062 63.0169 64.3159C63.0169 64.8256 62.6037 65.2388 62.0941 65.2388H45.6983C45.1886 65.2388 44.7754 64.8256 44.7754 64.3159C44.7754 63.8062 45.1886 63.393 45.6983 63.393H62.0941Z" fill="#2F2F2F"/>
  </g>
  </svg>
